# xmcd
#
# Track frame offsets:
#	150
#	16206
#	30160
#	39010
#	55720
#	69388
#	82386
#	98840
#	114293
#	149600
#	166845
#	188336
#	209656
#	221839
#	243569
#	260814
#	270867
#	284972
#	297484
#	314232
#	330433
#
# Disc length: 4708 seconds
#
# Revision: 1
# Processed by: cddbd v1.5.2PL0 Copyright (c) Steve Scherf et al.
# Submitted via: audiograbber 1.83.01
#
DISCID=3e126215
DTITLE=Tony Joe White - Collected - CD1
DYEAR=2012
DGENRE=Blues
TTITLE0=Rainy Night In Georgia
TTITLE1=Roosevelt And Ira Lee (Night Of The Mossacin)
TTITLE2=Soul Francisco
TTITLE3=Polk Salad Annie
TTITLE4=Groupy Girl
TTITLE5=Hard To Handle
TTITLE6=What Does It Take (To Win Your Love)
TTITLE7=Stockholm Blues
TTITLE8=Boom Boom
TTITLE9=They Caught The Devil And Put Him In Jail In Eudora Arkansas
TTITLE10=The Daddy
TTITLE11=I Just Walked Away
TTITLE12=I've Got A Thing About You Baby
TTITLE13=Even Trolls Love Rock And Roll
TTITLE14=As The Crow Flies
TTITLE15=Saturday Night In Oak Grove Louisiana
TTITLE16=Ol' Mother Earth
TTITLE17=Backwoods Preacher Man
TTITLE18=Soulful Eyes
TTITLE19=Hold On To Your Hiney
TTITLE20=Swamp Rap
EXTD=
EXTT0=
EXTT1=
EXTT2=
EXTT3=
EXTT4=
EXTT5=
EXTT6=
EXTT7=
EXTT8=
EXTT9=
EXTT10=
EXTT11=
EXTT12=
EXTT13=
EXTT14=
EXTT15=
EXTT16=
EXTT17=
EXTT18=
EXTT19=
EXTT20=
PLAYORDER=
